<svg width="147" height="79" viewBox="0 0 147 79" fill="none" xmlns="http://www.w3.org/2000/svg">
    <path d="M37.408 16.744V43.792H42.056V16.744H37.408ZM40.768 28.448V32.312H49.56V28.448H40.768ZM23.408 20.272V22.792C23.408 31.248 16.296 38.024 2.968 40.992L4.816 44.744C19.656 41.328 28.56 33.04 28.56 20.272H23.408ZM5.04 20.272V24.08H26.096V20.272H5.04ZM10.192 46.088V64.96H14.784V49.616H42.336V46.088H10.192ZM10.192 63.168V66.696H43.456V63.168H10.192ZM13.216 54.544V57.96H41.72V54.544H13.216ZM90.4356 16.688V67.424H95.0836V16.688H90.4356ZM68.3716 20.608C60.9236 20.608 55.5476 27.496 55.5476 38.248C55.5476 49.056 60.9236 55.944 68.3716 55.944C75.8756 55.944 81.2516 49.056 81.2516 38.248C81.2516 27.496 75.8756 20.608 68.3716 20.608ZM68.3716 24.808C73.3556 24.808 76.7716 30.072 76.7716 38.248C76.7716 46.48 73.3556 51.856 68.3716 51.856C63.4436 51.856 59.9716 46.48 59.9716 38.248C59.9716 30.072 63.4436 24.808 68.3716 24.808ZM102.079 46.76V41.328H120.783V46.76H102.079ZM108.687 53.648V34.384H114.063V53.648H108.687ZM120.713 46.76V41.328H139.417V46.76H120.713ZM127.321 53.648V34.384H132.697V53.648H127.321Z" fill="#007F5F"/>
    </svg>
    