<svg xmlns="http://www.w3.org/2000/svg" width="226.4" height="271.9" viewBox="0 0 226.4 271.9">
  <g id="Groupe_6" data-name="Groupe 6" transform="translate(-813 -471)">
    <g id="LogoMBS_Complet_Quadri-Vect" transform="translate(484.2 291.2)">
      <g id="Groupe_1" data-name="Groupe 1">
        <path id="Tracé_1" data-name="Tracé 1" d="M343.6,429.4V422l-3.6,6h-2.4l-3.5-5.7v7.2h-5V413.2h4.5l5.3,8.7,5.2-8.7h4.5v16.3h-5Z" fill="#24318a"/>
        <path id="Tracé_2" data-name="Tracé 2" d="M354.4,428.7a7.981,7.981,0,0,1-3.3-3,8.667,8.667,0,0,1,0-8.8,7.981,7.981,0,0,1,3.3-3,10.591,10.591,0,0,1,9.4,0,7.981,7.981,0,0,1,3.3,3,8.667,8.667,0,0,1,0,8.8,7.981,7.981,0,0,1-3.3,3,10.492,10.492,0,0,1-4.7,1.1A9.323,9.323,0,0,1,354.4,428.7Zm6.5-3.8a3.531,3.531,0,0,0,1.3-1.4,4.66,4.66,0,0,0,0-4.2,3.531,3.531,0,0,0-1.3-1.4,3.49,3.49,0,0,0-3.6,0,3.531,3.531,0,0,0-1.3,1.4,4.66,4.66,0,0,0,0,4.2,3.531,3.531,0,0,0,1.3,1.4,3.49,3.49,0,0,0,3.6,0Z" fill="#24318a"/>
        <path id="Tracé_3" data-name="Tracé 3" d="M385.6,413.2v16.3h-4.5l-6.2-7.4v7.4h-5.3V413.2h4.5l6.2,7.4v-7.4Z" fill="#24318a"/>
        <path id="Tracé_4" data-name="Tracé 4" d="M391.1,417.4h-4.8v-4.3h15v4.3h-4.8v12H391v-12Z" fill="#24318a"/>
        <path id="Tracé_5" data-name="Tracé 5" d="M413.8,413.9a6.066,6.066,0,0,1,2.6,2.1,5.815,5.815,0,0,1,.9,3.3,6.294,6.294,0,0,1-.9,3.3,6.066,6.066,0,0,1-2.6,2.1,9.374,9.374,0,0,1-3.9.7h-2.3v4H402V413.1h7.8A11.341,11.341,0,0,1,413.8,413.9Zm-2.6,6.8a1.933,1.933,0,0,0,0-2.8,2.648,2.648,0,0,0-1.7-.5h-2v3.8h2A2.175,2.175,0,0,0,411.2,420.7Z" fill="#24318a"/>
        <path id="Tracé_6" data-name="Tracé 6" d="M431.9,425.3v4.1H418.4V413.1h13.2v4.1h-7.8v1.9h6.9v4h-6.9v2.1h8.1Z" fill="#24318a"/>
        <path id="Tracé_7" data-name="Tracé 7" d="M433.3,413.2h5.5v12h7.3v4.3H433.3Z" fill="#24318a"/>
        <path id="Tracé_8" data-name="Tracé 8" d="M446.9,413.2h5.5v12h7.3v4.3H446.9Z" fill="#24318a"/>
        <path id="Tracé_9" data-name="Tracé 9" d="M460.6,413.2h5.5v16.3h-5.5Z" fill="#24318a"/>
        <path id="Tracé_10" data-name="Tracé 10" d="M481.5,425.3v4.1H468V413.1h13.2v4.1h-7.8v1.9h6.9v4h-6.9v2.1h8.1Z" fill="#24318a"/>
        <path id="Tracé_11" data-name="Tracé 11" d="M489.9,425.4h-1.5v4.1H483V413.2h7.8a9.374,9.374,0,0,1,3.9.7,6.066,6.066,0,0,1,2.6,2.1,5.815,5.815,0,0,1,.9,3.3,5.571,5.571,0,0,1-.8,3,5.228,5.228,0,0,1-2.3,2.1l3.4,5h-5.9Zm2.2-7.5a2.648,2.648,0,0,0-1.7-.5h-2v3.8h2a2.86,2.86,0,0,0,1.7-.5,1.933,1.933,0,0,0,0-2.8Z" fill="#24318a"/>
        <path id="Tracé_12" data-name="Tracé 12" d="M344.3,444.4a4.147,4.147,0,0,1,.8,2.5,3.764,3.764,0,0,1-1.8,3.3,9.157,9.157,0,0,1-5.1,1.2H329V435.1h8.7a8.229,8.229,0,0,1,4.9,1.2,3.683,3.683,0,0,1,1.7,3.1,3.379,3.379,0,0,1-.6,2,4.2,4.2,0,0,1-1.7,1.5A3.9,3.9,0,0,1,344.3,444.4Zm-9.8-5.5v2.4h2.6q1.8,0,1.8-1.2t-1.8-1.2h-2.6Zm5.1,7.3c0-.9-.6-1.3-1.8-1.3h-3.3v2.6h3.3C339,447.5,339.6,447.1,339.6,446.2Z" fill="#24318a"/>
        <path id="Tracé_13" data-name="Tracé 13" d="M348.3,449.7a7.4,7.4,0,0,1-2.1-5.7v-8.9h5.5v8.8a4.326,4.326,0,0,0,.6,2.6,2.425,2.425,0,0,0,3.6,0,4.326,4.326,0,0,0,.6-2.6v-8.8h5.4V444a7.7,7.7,0,0,1-2.1,5.7,8.159,8.159,0,0,1-5.8,2A8.071,8.071,0,0,1,348.3,449.7Z" fill="#24318a"/>
        <path id="Tracé_14" data-name="Tracé 14" d="M366,451.2a10.027,10.027,0,0,1-3.1-1.2l1.8-4a15.636,15.636,0,0,0,2.6,1.1,9.468,9.468,0,0,0,2.8.4,5.136,5.136,0,0,0,1.6-.2.752.752,0,0,0,.5-.7.938.938,0,0,0-.6-.8,9.3,9.3,0,0,0-2.1-.6,27.021,27.021,0,0,1-3.1-.8,5.414,5.414,0,0,1-2.2-1.5,4.1,4.1,0,0,1-.9-2.8,4.678,4.678,0,0,1,.9-2.8,6.03,6.03,0,0,1,2.6-2,10.049,10.049,0,0,1,4.1-.7,12.423,12.423,0,0,1,3.3.4,7.816,7.816,0,0,1,2.8,1.1l-1.6,4a10.117,10.117,0,0,0-4.5-1.2c-1.4,0-2.1.3-2.1,1a.73.73,0,0,0,.6.7,10.746,10.746,0,0,0,2.1.5,17.278,17.278,0,0,1,3.1.8,4.825,4.825,0,0,1,2.2,1.5,4.1,4.1,0,0,1,.9,2.8,4.9,4.9,0,0,1-.9,2.8,6.03,6.03,0,0,1-2.6,2,10.049,10.049,0,0,1-4.1.7A17.7,17.7,0,0,1,366,451.2Z" fill="#24318a"/>
        <path id="Tracé_15" data-name="Tracé 15" d="M378.4,435.1h5.5v16.3h-5.5Z" fill="#24318a"/>
        <path id="Tracé_16" data-name="Tracé 16" d="M401.9,435.1v16.3h-4.5l-6.2-7.4v7.4h-5.3V435.1h4.5l6.2,7.4v-7.4Z" fill="#24318a"/>
        <path id="Tracé_17" data-name="Tracé 17" d="M417.4,447.2v4.1H403.9V435h13.2v4.1h-7.8V441h6.9v4h-6.9v2.1h8.1Z" fill="#24318a"/>
        <path id="Tracé_18" data-name="Tracé 18" d="M420.9,451.2a10.027,10.027,0,0,1-3.1-1.2l1.8-4a15.636,15.636,0,0,0,2.6,1.1,9.468,9.468,0,0,0,2.8.4,5.136,5.136,0,0,0,1.6-.2.752.752,0,0,0,.5-.7.938.938,0,0,0-.6-.8,9.3,9.3,0,0,0-2.1-.6,27.021,27.021,0,0,1-3.1-.8,5.414,5.414,0,0,1-2.2-1.5,4.1,4.1,0,0,1-.9-2.8,4.678,4.678,0,0,1,.9-2.8,6.03,6.03,0,0,1,2.6-2,10.049,10.049,0,0,1,4.1-.7,12.423,12.423,0,0,1,3.3.4,7.816,7.816,0,0,1,2.8,1.1l-1.6,4a10.117,10.117,0,0,0-4.5-1.2c-1.4,0-2.1.3-2.1,1a.73.73,0,0,0,.6.7,10.746,10.746,0,0,0,2.1.5,17.278,17.278,0,0,1,3.1.8,4.825,4.825,0,0,1,2.2,1.5,4.1,4.1,0,0,1,.9,2.8,4.9,4.9,0,0,1-.9,2.8,6.03,6.03,0,0,1-2.6,2,10.049,10.049,0,0,1-4.1.7A17.7,17.7,0,0,1,420.9,451.2Z" fill="#24318a"/>
        <path id="Tracé_19" data-name="Tracé 19" d="M435.5,451.2a10.027,10.027,0,0,1-3.1-1.2l1.8-4a15.636,15.636,0,0,0,2.6,1.1,9.468,9.468,0,0,0,2.8.4,5.136,5.136,0,0,0,1.6-.2.752.752,0,0,0,.5-.7.938.938,0,0,0-.6-.8,9.3,9.3,0,0,0-2.1-.6,27.021,27.021,0,0,1-3.1-.8,5.414,5.414,0,0,1-2.2-1.5,4.1,4.1,0,0,1-.9-2.8,4.678,4.678,0,0,1,.9-2.8,6.03,6.03,0,0,1,2.6-2,10.049,10.049,0,0,1,4.1-.7,12.423,12.423,0,0,1,3.3.4,7.816,7.816,0,0,1,2.8,1.1l-1.6,4a10.117,10.117,0,0,0-4.5-1.2c-1.4,0-2.1.3-2.1,1a.73.73,0,0,0,.6.7,10.746,10.746,0,0,0,2.1.5,17.278,17.278,0,0,1,3.1.8,4.825,4.825,0,0,1,2.2,1.5,4.1,4.1,0,0,1,.9,2.8,4.9,4.9,0,0,1-.9,2.8,6.03,6.03,0,0,1-2.6,2,10.049,10.049,0,0,1-4.1.7A17.7,17.7,0,0,1,435.5,451.2Z" fill="#24318a"/>
        <path id="Tracé_20" data-name="Tracé 20" d="M456.3,451.2a10.027,10.027,0,0,1-3.1-1.2l1.8-4a15.636,15.636,0,0,0,2.6,1.1,9.468,9.468,0,0,0,2.8.4,5.136,5.136,0,0,0,1.6-.2.752.752,0,0,0,.5-.7.938.938,0,0,0-.6-.8,9.3,9.3,0,0,0-2.1-.6,27.021,27.021,0,0,1-3.1-.8,5.414,5.414,0,0,1-2.2-1.5,4.1,4.1,0,0,1-.9-2.8,4.678,4.678,0,0,1,.9-2.8,6.03,6.03,0,0,1,2.6-2,10.049,10.049,0,0,1,4.1-.7,12.423,12.423,0,0,1,3.3.4,7.816,7.816,0,0,1,2.8,1.1l-1.6,4a10.117,10.117,0,0,0-4.5-1.2c-1.4,0-2.1.3-2.1,1a.73.73,0,0,0,.6.7,10.746,10.746,0,0,0,2.1.5,17.278,17.278,0,0,1,3.1.8,4.825,4.825,0,0,1,2.2,1.5,4.1,4.1,0,0,1,.9,2.8,4.9,4.9,0,0,1-.9,2.8,6.03,6.03,0,0,1-2.6,2,10.049,10.049,0,0,1-4.1.7A17.7,17.7,0,0,1,456.3,451.2Z" fill="#24318a"/>
        <path id="Tracé_21" data-name="Tracé 21" d="M472.5,450.6a7.168,7.168,0,0,1-3.2-3,9.331,9.331,0,0,1-1.2-4.4,8.217,8.217,0,0,1,4.4-7.4,10.071,10.071,0,0,1,4.6-1.1,10.842,10.842,0,0,1,4.2.8,9.234,9.234,0,0,1,3.1,2.4L481,441a4.376,4.376,0,0,0-3.6-1.9,3.928,3.928,0,0,0-2.8,1.1,4.04,4.04,0,0,0-1,3,4.359,4.359,0,0,0,1,3,3.763,3.763,0,0,0,2.8,1.1,4.509,4.509,0,0,0,3.6-1.9l3.5,3.1a6.71,6.71,0,0,1-3.1,2.4,11.223,11.223,0,0,1-4.2.8A10.493,10.493,0,0,1,472.5,450.6Z" fill="#24318a"/>
        <path id="Tracé_22" data-name="Tracé 22" d="M501.4,435.1v16.3h-5.5v-6h-5.1v6h-5.5V435.1h5.5v5.8h5.1v-5.8Z" fill="#24318a"/>
        <path id="Tracé_23" data-name="Tracé 23" d="M507.1,450.6a7.981,7.981,0,0,1-3.3-3,8.667,8.667,0,0,1,0-8.8,7.981,7.981,0,0,1,3.3-3,10.591,10.591,0,0,1,9.4,0,7.981,7.981,0,0,1,3.3,3,8.667,8.667,0,0,1,0,8.8,7.981,7.981,0,0,1-3.3,3,10.591,10.591,0,0,1-9.4,0Zm6.6-3.8a3.531,3.531,0,0,0,1.3-1.4,4.66,4.66,0,0,0,0-4.2,3.531,3.531,0,0,0-1.3-1.4,3.49,3.49,0,0,0-3.6,0,3.531,3.531,0,0,0-1.3,1.4,4.66,4.66,0,0,0,0,4.2,3.531,3.531,0,0,0,1.3,1.4,3.49,3.49,0,0,0,3.6,0Z" fill="#24318a"/>
        <path id="Tracé_24" data-name="Tracé 24" d="M526.1,450.6a7.981,7.981,0,0,1-3.3-3,8.667,8.667,0,0,1,0-8.8,7.981,7.981,0,0,1,3.3-3,10.591,10.591,0,0,1,9.4,0,7.981,7.981,0,0,1,3.3,3,8.667,8.667,0,0,1,0,8.8,7.981,7.981,0,0,1-3.3,3,10.591,10.591,0,0,1-9.4,0Zm6.6-3.8a3.531,3.531,0,0,0,1.3-1.4,4.66,4.66,0,0,0,0-4.2,3.531,3.531,0,0,0-1.3-1.4,3.49,3.49,0,0,0-3.6,0,3.531,3.531,0,0,0-1.3,1.4,4.66,4.66,0,0,0,0,4.2,3.531,3.531,0,0,0,1.3,1.4,3.49,3.49,0,0,0,3.6,0Z" fill="#24318a"/>
        <path id="Tracé_25" data-name="Tracé 25" d="M541.3,435.1h5.5v12h7.3v4.3H541.3Z" fill="#24318a"/>
      </g>
      <g id="Groupe_3" data-name="Groupe 3">
        <g id="Groupe_2" data-name="Groupe 2">
          <path id="Tracé_26" data-name="Tracé 26" d="M555.2,428.8H508.9V407.5h24.9V201.1H350.1V305.2H328.8V179.8H555.2Z" fill="#24318a"/>
        </g>
      </g>
      <g id="Groupe_5" data-name="Groupe 5">
        <g id="Groupe_4" data-name="Groupe 4">
          <path id="Tracé_27" data-name="Tracé 27" d="M522.1,371.6l-3.4-1.6a11.149,11.149,0,0,0,1.6-5.6c0-2.2-.6-3-1.5-3-2.6,0,.1,9.7-6.4,9.7-3.1,0-5.2-2.8-5.2-7.5a13.2,13.2,0,0,1,1.4-6.2l3.3,1.6a9.3,9.3,0,0,0-1.2,4.6c0,2.1.7,3,1.5,3,2.8,0,.1-9.7,6.4-9.7,3,0,5.1,2.8,5.1,7.6a13.107,13.107,0,0,1-1.6,7.1" fill="#24318a"/>
          <path id="Tracé_28" data-name="Tracé 28" d="M502.6,354.6a2.912,2.912,0,1,1,2.6-2.9,2.61,2.61,0,0,1-2.6,2.9m4.8-5.2h16.1v4.7H507.4Z" fill="#24318a"/>
          <path id="Tracé_29" data-name="Tracé 29" d="M514.3,328.6h9.2v4.7H515c-2.6,0-3.8,1.2-3.8,3.3,0,2.2,1.4,3.9,4.3,3.9h8v4.7H507.4v-4.5h1.9a6.929,6.929,0,0,1-2.1-5.3c0-4,2.2-6.8,7.1-6.8" fill="#24318a"/>
          <path id="Tracé_30" data-name="Tracé 30" d="M515.5,325.3c-4.9,0-8.3-3.7-8.3-9,0-3.4,1.5-6.1,4.1-7.2l1.9,3.6a4.127,4.127,0,0,0-2.2,3.6c0,2.4,1.6,4.2,4.5,4.2a4.182,4.182,0,0,0,4.5-4.2,3.912,3.912,0,0,0-2.2-3.6l2-3.6c2.6,1.2,4.1,3.8,4.1,7.2-.1,5.3-3.5,9-8.4,9" fill="#24318a"/>
          <path id="Tracé_31" data-name="Tracé 31" d="M516.8,290.9v12.2c2-.4,3.2-2.2,3.2-4.6a5.2,5.2,0,0,0-1.6-4l2.7-2.5c1.7,1.5,2.6,3.7,2.6,6.7,0,5.6-3.5,9.2-8.3,9.2a8.23,8.23,0,0,1-8.3-8.6,8.03,8.03,0,0,1,8.4-8.4,5.649,5.649,0,0,1,1.3,0m-2.7,12.3v-7.9a3.92,3.92,0,0,0-3.4,4,3.811,3.811,0,0,0,3.4,3.9" fill="#24318a"/>
          <path id="Tracé_32" data-name="Tracé 32" d="M502.6,272.1h21V277H506.5v4.2h-3.9Z" fill="#24318a"/>
          <path id="Tracé_33" data-name="Tracé 33" d="M517.5,250.9c4,0,6.4,3.5,6.4,8.9,0,5.3-2.5,8.8-6.4,8.8a5.233,5.233,0,0,1-4.9-3.2,4.747,4.747,0,0,1-4.3,2.4c-3.7,0-6-3.3-6-8.1s2.3-8.1,6-8.1a4.726,4.726,0,0,1,4.3,2.5,5.233,5.233,0,0,1,4.9-3.2m-.2,4.9c-1.9,0-3,1.5-3,4,0,2.4,1.1,3.9,3,3.9s3-1.5,3-3.9c.1-2.5-1.1-4-3-4m-8.9,7.2c1.6,0,2.6-1.3,2.6-3.2,0-2-1-3.3-2.6-3.3s-2.6,1.3-2.6,3.3c0,1.9,1,3.2,2.6,3.2" fill="#24318a"/>
          <path id="Tracé_34" data-name="Tracé 34" d="M512.6,231.9c7.3,0,11.3,4.3,11.3,10.7a11.576,11.576,0,0,1-1.4,5.8l-3.6-1.8a6.519,6.519,0,0,0,1-3.9c0-3.5-2.1-5.8-6.1-5.9a7.192,7.192,0,0,1,1.9,5.2c0,4-2.6,7.2-6.5,7.2-4.3,0-7-3.5-7-7.9,0-5.8,3.7-9.4,10.4-9.4m-3.6,5.4c-1.8,0-3.1,1.4-3.1,3.7,0,2.1,1.2,3.5,3.1,3.5s3.1-1.4,3.1-3.6c0-2.1-1.3-3.6-3.1-3.6" fill="#24318a"/>
          <path id="Tracé_35" data-name="Tracé 35" d="M502.6,215.7h3.1l17.9,7.8v5.3l-17.1-7.5V231h-3.9Z" fill="#24318a"/>
          <path id="Tracé_36" data-name="Tracé 36" d="M522.1,371.6l-3.4-1.6a11.149,11.149,0,0,0,1.6-5.6c0-2.2-.6-3-1.5-3-2.6,0,.1,9.7-6.4,9.7-3.1,0-5.2-2.8-5.2-7.5a13.2,13.2,0,0,1,1.4-6.2l3.3,1.6a9.3,9.3,0,0,0-1.2,4.6c0,2.1.7,3,1.5,3,2.8,0,.1-9.7,6.4-9.7,3,0,5.1,2.8,5.1,7.6a13.107,13.107,0,0,1-1.6,7.1" fill="#24318a"/>
          <path id="Tracé_37" data-name="Tracé 37" d="M502.6,354.6a2.912,2.912,0,1,1,2.6-2.9,2.61,2.61,0,0,1-2.6,2.9m4.8-5.2h16.1v4.7H507.4Z" fill="#24318a"/>
          <path id="Tracé_38" data-name="Tracé 38" d="M514.3,328.6h9.2v4.7H515c-2.6,0-3.8,1.2-3.8,3.3,0,2.2,1.4,3.9,4.3,3.9h8v4.7H507.4v-4.5h1.9a6.929,6.929,0,0,1-2.1-5.3c0-4,2.2-6.8,7.1-6.8" fill="#24318a"/>
          <path id="Tracé_39" data-name="Tracé 39" d="M515.5,325.3c-4.9,0-8.3-3.7-8.3-9,0-3.4,1.5-6.1,4.1-7.2l1.9,3.6a4.127,4.127,0,0,0-2.2,3.6c0,2.4,1.6,4.2,4.5,4.2a4.182,4.182,0,0,0,4.5-4.2,3.912,3.912,0,0,0-2.2-3.6l2-3.6c2.6,1.2,4.1,3.8,4.1,7.2-.1,5.3-3.5,9-8.4,9" fill="#24318a"/>
          <path id="Tracé_40" data-name="Tracé 40" d="M516.8,290.9v12.2c2-.4,3.2-2.2,3.2-4.6a5.2,5.2,0,0,0-1.6-4l2.7-2.5c1.7,1.5,2.6,3.7,2.6,6.7,0,5.6-3.5,9.2-8.3,9.2a8.23,8.23,0,0,1-8.3-8.6,8.03,8.03,0,0,1,8.4-8.4,5.649,5.649,0,0,1,1.3,0m-2.7,12.3v-7.9a3.92,3.92,0,0,0-3.4,4,3.811,3.811,0,0,0,3.4,3.9" fill="#24318a"/>
          <path id="Tracé_41" data-name="Tracé 41" d="M502.6,272.1h21V277H506.5v4.2h-3.9Z" fill="#24318a"/>
          <path id="Tracé_42" data-name="Tracé 42" d="M517.5,250.9c4,0,6.4,3.5,6.4,8.9,0,5.3-2.5,8.8-6.4,8.8a5.233,5.233,0,0,1-4.9-3.2,4.747,4.747,0,0,1-4.3,2.4c-3.7,0-6-3.3-6-8.1s2.3-8.1,6-8.1a4.726,4.726,0,0,1,4.3,2.5,5.233,5.233,0,0,1,4.9-3.2m-.2,4.9c-1.9,0-3,1.5-3,4,0,2.4,1.1,3.9,3,3.9s3-1.5,3-3.9c.1-2.5-1.1-4-3-4m-8.9,7.2c1.6,0,2.6-1.3,2.6-3.2,0-2-1-3.3-2.6-3.3s-2.6,1.3-2.6,3.3c0,1.9,1,3.2,2.6,3.2" fill="#24318a"/>
          <path id="Tracé_43" data-name="Tracé 43" d="M512.6,231.9c7.3,0,11.3,4.3,11.3,10.7a11.576,11.576,0,0,1-1.4,5.8l-3.6-1.8a6.519,6.519,0,0,0,1-3.9c0-3.5-2.1-5.8-6.1-5.9a7.192,7.192,0,0,1,1.9,5.2c0,4-2.6,7.2-6.5,7.2-4.3,0-7-3.5-7-7.9,0-5.8,3.7-9.4,10.4-9.4m-3.6,5.4c-1.8,0-3.1,1.4-3.1,3.7,0,2.1,1.2,3.5,3.1,3.5s3.1-1.4,3.1-3.6c0-2.1-1.3-3.6-3.1-3.6" fill="#24318a"/>
          <path id="Tracé_44" data-name="Tracé 44" d="M502.6,215.7h3.1l17.9,7.8v5.3l-17.1-7.5V231h-3.9Z" fill="#24318a"/>
        </g>
      </g>
      <path id="Tracé_45" data-name="Tracé 45" d="M450.9,304.8l-.3-45.9-26.2,36.6H412.6l-26.1-35.3v44.5H363.9V214.6h19.9l35.1,50.3,34.3-50.3h19.9l.3,90.1H450.9Z" fill="#24318a"/>
      <path id="Tracé_46" data-name="Tracé 46" d="M414,367.3a21.373,21.373,0,0,1,4.6,13.7c0,7.8-3.3,13.8-10,18.1-6.6,4.2-16.2,6.4-28.8,6.4H329V316.3h48.1c12,0,21.2,2.1,27.4,6.3,6.3,4.2,9.4,9.9,9.4,17a20.537,20.537,0,0,1-3.3,11.4,22.845,22.845,0,0,1-9.3,8A25.084,25.084,0,0,1,414,367.3Zm-62.6-32.2V351h24.3c9,0,13.4-2.7,13.4-8s-4.5-7.9-13.4-7.9Zm42.3,43.1c0-5.6-4.7-8.5-14-8.5H351.4v16.9h28.3C389,386.6,393.7,383.8,393.7,378.2Z" fill="#24318a"/>
      <path id="Tracé_47" data-name="Tracé 47" d="M483.1,355.8a134.748,134.748,0,0,0-17.8-4.7c-6.4-1.3-12-2.5-14.9-3.7s-4.3-3-4.3-5.4,1.2-4.3,3.6-5.8,7.3-2.2,12.6-2.2c8.1,0,16.5,2.2,25.2,6.5l7-19.5a58.854,58.854,0,0,0-13.8-4.7,86.214,86.214,0,0,0-18.3-2c-9.1,0-16.7,1.3-22.9,3.8-6.2,2.6-10.9,6-14.1,10.4a25.065,25.065,0,0,0-4.7,14.8c0,6.2,1.7,11.2,5.1,14.9a30.19,30.19,0,0,0,12.2,8,143.752,143.752,0,0,0,17.8,4.7c6.5,1.4,13.1,2.7,16.1,3.9,2.9,1.2,4.4,3.1,4.4,5.7,0,4.9-7.1,7.3-17.3,7.3a59.19,59.19,0,0,1-16.4-2.4,59.864,59.864,0,0,1-14.7-6.4l-8.7,18.7c4.5,3,10.3,5.4,17.5,7.2a91.185,91.185,0,0,0,22.2,2.7c9,0,16.6-1.3,22.9-3.9s11-6.1,14.1-10.4a24.685,24.685,0,0,0,4.7-14.6c0-6.2-1.7-11.2-5.2-14.8A30.4,30.4,0,0,0,483.1,355.8Z" fill="#24318a"/>
    </g>
  </g>
</svg>
